# xmcd
# 
# Track frame offsets:
#     150
#     18227
#     33153
#     51423
#     67120
# 
# Disc length: 1210
# 
# Revision: 0
# Processed by: cddbd v1.5.2PL0 Copyright (c) Steve Scherf et al.
# Submitted via: fre:ac v1.0.17
# 
DISCID=3d04b805
DTITLE=Defender - Rising High
DYEAR=2018
DGENRE=Metal
TTITLE0=Ride Through The Night
TTITLE1=Evil Nightmare
TTITLE2=Defend Till The End
TTITLE3=Fast Line
TTITLE4=Rise With Power
EXTD=
EXTT0=
EXTT1=
EXTT2=
EXTT3=
EXTT4=
PLAYORDER=
